<mxfile host="app.diagrams.net" modified="2023-02-16T15:29:27.767Z" agent="5.0 (Windows NT 10.0; Win64; x64) AppleWebKit/537.36 (KHTML, like Gecko) Chrome/108.0.0.0 Safari/537.36" etag="a20LfDQnkClDsVFxpIH-" version="20.8.20" type="github">
  <diagram name="Page-1" id="_bZPbaJvds2nwed7FF_N">
    <mxGraphModel dx="780" dy="454" grid="1" gridSize="10" guides="1" tooltips="1" connect="1" arrows="1" fold="1" page="1" pageScale="1" pageWidth="850" pageHeight="1100" math="0" shadow="0">
      <root>
        <mxCell id="0" />
        <mxCell id="1" parent="0" />
        <mxCell id="89XUOfNxnymho5QkixXb-4" value="..." style="rounded=1;whiteSpace=wrap;html=1;" vertex="1" parent="1">
          <mxGeometry x="580" y="30" width="110" height="310" as="geometry" />
        </mxCell>
        <mxCell id="89XUOfNxnymho5QkixXb-17" style="edgeStyle=orthogonalEdgeStyle;rounded=0;orthogonalLoop=1;jettySize=auto;html=1;entryX=0.5;entryY=0;entryDx=0;entryDy=0;startArrow=classic;startFill=1;" edge="1" parent="1" target="89XUOfNxnymho5QkixXb-14">
          <mxGeometry relative="1" as="geometry">
            <mxPoint x="123.79999999999995" y="160" as="sourcePoint" />
          </mxGeometry>
        </mxCell>
        <mxCell id="89XUOfNxnymho5QkixXb-6" style="edgeStyle=orthogonalEdgeStyle;rounded=0;orthogonalLoop=1;jettySize=auto;html=1;startArrow=classic;startFill=1;" edge="1" parent="1" source="89XUOfNxnymho5QkixXb-2" target="89XUOfNxnymho5QkixXb-4">
          <mxGeometry relative="1" as="geometry" />
        </mxCell>
        <mxCell id="89XUOfNxnymho5QkixXb-2" value="" style="aspect=fixed;perimeter=ellipsePerimeter;html=1;align=center;shadow=0;dashed=0;spacingTop=3;image;image=img/lib/active_directory/generic_server.svg;" vertex="1" parent="1">
          <mxGeometry x="340" y="89.28" width="40" height="71.43" as="geometry" />
        </mxCell>
        <mxCell id="89XUOfNxnymho5QkixXb-5" value="Third Party" style="text;html=1;align=center;verticalAlign=middle;resizable=0;points=[];autosize=1;strokeColor=none;fillColor=none;" vertex="1" parent="1">
          <mxGeometry x="590" width="80" height="30" as="geometry" />
        </mxCell>
        <mxCell id="89XUOfNxnymho5QkixXb-7" value="INSS" style="aspect=fixed;perimeter=ellipsePerimeter;html=1;align=center;shadow=0;dashed=0;spacingTop=3;image;image=img/lib/active_directory/generic_server.svg;" vertex="1" parent="1">
          <mxGeometry x="616" y="30" width="28.000000000000004" height="50" as="geometry" />
        </mxCell>
        <mxCell id="89XUOfNxnymho5QkixXb-8" value="E-Tributacao" style="aspect=fixed;perimeter=ellipsePerimeter;html=1;align=center;shadow=0;dashed=0;spacingTop=3;image;image=img/lib/active_directory/generic_server.svg;" vertex="1" parent="1">
          <mxGeometry x="616" y="100" width="28.000000000000004" height="50" as="geometry" />
        </mxCell>
        <mxCell id="89XUOfNxnymho5QkixXb-10" value="JUE" style="aspect=fixed;perimeter=ellipsePerimeter;html=1;align=center;shadow=0;dashed=0;spacingTop=3;image;image=img/lib/active_directory/generic_server.svg;" vertex="1" parent="1">
          <mxGeometry x="616" y="210" width="28.000000000000004" height="50" as="geometry" />
        </mxCell>
        <mxCell id="89XUOfNxnymho5QkixXb-11" value="Validate Reference" style="text;html=1;align=center;verticalAlign=middle;resizable=0;points=[];autosize=1;strokeColor=none;fillColor=none;" vertex="1" parent="1">
          <mxGeometry x="205" y="100" width="120" height="30" as="geometry" />
        </mxCell>
        <mxCell id="89XUOfNxnymho5QkixXb-12" value="Redirect Req." style="text;html=1;align=center;verticalAlign=middle;resizable=0;points=[];autosize=1;strokeColor=none;fillColor=none;" vertex="1" parent="1">
          <mxGeometry x="375" y="100" width="100" height="30" as="geometry" />
        </mxCell>
        <mxCell id="89XUOfNxnymho5QkixXb-13" value="" style="endArrow=classic;startArrow=classic;html=1;rounded=0;entryX=0;entryY=0.5;entryDx=0;entryDy=0;" edge="1" parent="1" target="89XUOfNxnymho5QkixXb-2">
          <mxGeometry width="50" height="50" relative="1" as="geometry">
            <mxPoint x="167.5" y="124.99898843930634" as="sourcePoint" />
            <mxPoint x="280" y="110.71" as="targetPoint" />
          </mxGeometry>
        </mxCell>
        <mxCell id="89XUOfNxnymho5QkixXb-18" style="edgeStyle=orthogonalEdgeStyle;rounded=0;orthogonalLoop=1;jettySize=auto;html=1;exitX=0.25;exitY=1;exitDx=0;exitDy=0;startArrow=classic;startFill=1;" edge="1" parent="1">
          <mxGeometry relative="1" as="geometry">
            <mxPoint x="127.23900966300062" y="290.0006797749976" as="sourcePoint" />
            <mxPoint x="127.75" y="352.64" as="targetPoint" />
            <Array as="points">
              <mxPoint x="127" y="321" />
            </Array>
          </mxGeometry>
        </mxCell>
        <mxCell id="89XUOfNxnymho5QkixXb-14" value="ESB" style="aspect=fixed;perimeter=ellipsePerimeter;html=1;align=center;shadow=0;dashed=0;spacingTop=3;image;image=img/lib/active_directory/generic_server.svg;" vertex="1" parent="1">
          <mxGeometry x="103.63" y="210" width="40.25" height="71.88" as="geometry" />
        </mxCell>
        <mxCell id="89XUOfNxnymho5QkixXb-21" style="edgeStyle=orthogonalEdgeStyle;rounded=0;orthogonalLoop=1;jettySize=auto;html=1;entryX=0.5;entryY=0;entryDx=0;entryDy=0;entryPerimeter=0;startArrow=classic;startFill=1;" edge="1" parent="1" source="89XUOfNxnymho5QkixXb-15" target="89XUOfNxnymho5QkixXb-20">
          <mxGeometry relative="1" as="geometry" />
        </mxCell>
        <mxCell id="89XUOfNxnymho5QkixXb-15" value="PAYEX" style="aspect=fixed;perimeter=ellipsePerimeter;html=1;align=center;shadow=0;dashed=0;spacingTop=3;image;image=img/lib/active_directory/generic_server.svg;" vertex="1" parent="1">
          <mxGeometry x="98" y="340" width="37.75" height="67.41" as="geometry" />
        </mxCell>
        <mxCell id="89XUOfNxnymho5QkixXb-24" style="edgeStyle=orthogonalEdgeStyle;rounded=0;orthogonalLoop=1;jettySize=auto;html=1;startArrow=classic;startFill=1;" edge="1" parent="1" source="89XUOfNxnymho5QkixXb-20" target="89XUOfNxnymho5QkixXb-22">
          <mxGeometry relative="1" as="geometry" />
        </mxCell>
        <mxCell id="89XUOfNxnymho5QkixXb-20" value="IBM MQ" style="sketch=0;aspect=fixed;pointerEvents=1;shadow=0;dashed=0;html=1;strokeColor=none;labelPosition=center;verticalLabelPosition=bottom;verticalAlign=top;align=center;fillColor=#00188D;shape=mxgraph.azure.queue_generic" vertex="1" parent="1">
          <mxGeometry x="62.75" y="480" width="122" height="36.6" as="geometry" />
        </mxCell>
        <mxCell id="89XUOfNxnymho5QkixXb-26" style="edgeStyle=orthogonalEdgeStyle;rounded=0;orthogonalLoop=1;jettySize=auto;html=1;startArrow=classic;startFill=1;" edge="1" parent="1" source="89XUOfNxnymho5QkixXb-22" target="89XUOfNxnymho5QkixXb-25">
          <mxGeometry relative="1" as="geometry" />
        </mxCell>
        <mxCell id="89XUOfNxnymho5QkixXb-22" value="Apollo" style="aspect=fixed;perimeter=ellipsePerimeter;html=1;align=center;shadow=0;dashed=0;spacingTop=3;image;image=img/lib/active_directory/generic_server.svg;" vertex="1" parent="1">
          <mxGeometry x="94.88" y="580" width="57.75" height="103.12" as="geometry" />
        </mxCell>
        <mxCell id="89XUOfNxnymho5QkixXb-28" value="" style="edgeStyle=orthogonalEdgeStyle;rounded=0;orthogonalLoop=1;jettySize=auto;html=1;startArrow=classic;startFill=1;" edge="1" parent="1" source="89XUOfNxnymho5QkixXb-25" target="89XUOfNxnymho5QkixXb-27">
          <mxGeometry relative="1" as="geometry" />
        </mxCell>
        <mxCell id="89XUOfNxnymho5QkixXb-25" value="T24 Folder&lt;br&gt;" style="sketch=0;aspect=fixed;pointerEvents=1;shadow=0;dashed=0;html=1;strokeColor=none;labelPosition=center;verticalLabelPosition=bottom;verticalAlign=top;align=center;fillColor=#00188D;shape=mxgraph.mscae.enterprise.shared_folder" vertex="1" parent="1">
          <mxGeometry x="250" y="606.56" width="43" height="50" as="geometry" />
        </mxCell>
        <mxCell id="89XUOfNxnymho5QkixXb-31" style="edgeStyle=orthogonalEdgeStyle;rounded=0;orthogonalLoop=1;jettySize=auto;html=1;entryX=0.5;entryY=1;entryDx=0;entryDy=0;fontColor=#FFFFFF;startArrow=classic;startFill=1;" edge="1" parent="1" source="89XUOfNxnymho5QkixXb-27" target="89XUOfNxnymho5QkixXb-4">
          <mxGeometry relative="1" as="geometry">
            <Array as="points">
              <mxPoint x="410" y="410" />
              <mxPoint x="635" y="410" />
            </Array>
          </mxGeometry>
        </mxCell>
        <mxCell id="89XUOfNxnymho5QkixXb-32" style="edgeStyle=orthogonalEdgeStyle;rounded=0;orthogonalLoop=1;jettySize=auto;html=1;fontColor=#FFFFFF;startArrow=classic;startFill=1;" edge="1" parent="1" source="89XUOfNxnymho5QkixXb-27" target="89XUOfNxnymho5QkixXb-30">
          <mxGeometry relative="1" as="geometry" />
        </mxCell>
        <mxCell id="89XUOfNxnymho5QkixXb-27" value="T24" style="aspect=fixed;perimeter=ellipsePerimeter;html=1;align=center;shadow=0;dashed=0;spacingTop=3;image;image=img/lib/active_directory/generic_server.svg;direction=east;" vertex="1" parent="1">
          <mxGeometry x="375" y="578.89" width="56.63" height="101.11" as="geometry" />
        </mxCell>
        <mxCell id="89XUOfNxnymho5QkixXb-30" value="&lt;font color=&quot;#ffffff&quot;&gt;&lt;b&gt;Process&lt;br&gt;Debit on T24&lt;/b&gt;&lt;/font&gt;" style="sketch=0;html=1;aspect=fixed;strokeColor=none;shadow=0;align=center;verticalAlign=top;fillColor=#3B8DF1;shape=mxgraph.gcp2.process" vertex="1" parent="1">
          <mxGeometry x="593" y="585.39" width="74" height="88.1" as="geometry" />
        </mxCell>
        <mxCell id="89XUOfNxnymho5QkixXb-33" value="&lt;b&gt;BOL&lt;/b&gt;" style="fontColor=#0066CC;verticalAlign=top;verticalLabelPosition=bottom;labelPosition=center;align=center;html=1;outlineConnect=0;fillColor=#CCCCCC;strokeColor=#6881B3;gradientColor=none;gradientDirection=north;strokeWidth=2;shape=mxgraph.networks.pc;" vertex="1" parent="1">
          <mxGeometry x="73.75" y="80" width="86.25" height="60" as="geometry" />
        </mxCell>
      </root>
    </mxGraphModel>
  </diagram>
</mxfile>
